<svg width="256" height="256" viewBox="0 0 256 256" fill="none" xmlns="http://www.w3.org/2000/svg">
<rect width="256" height="256" rx="24" fill="#AAC9E6"/>
<path d="M129.846 42.6852L131.343 103.956H128.498C124.106 82.3116 120.213 67.5839 116.818 59.7725C113.424 51.7984 108.533 47.8114 102.144 47.8114H100.347V208.433H113.075V213.559H58.4184V208.433H71.1466V47.8114H69.2C62.8109 47.8114 57.8694 51.9612 54.3754 60.2607C50.8814 68.3976 47.0379 82.9626 42.8451 103.956H40L41.4974 42.6852H129.846Z" fill="#354873"/>
<path d="M180.96 210.874C185.951 210.874 190.344 208.677 194.137 204.283C198.031 199.889 199.977 193.298 199.977 184.51C199.977 175.56 197.881 168.725 193.688 164.006C189.595 159.286 183.705 155.218 176.019 151.8C168.432 148.22 162.891 145.128 159.397 142.524C156.003 139.92 152.758 136.503 149.664 132.272C143.474 123.81 140.38 110.709 140.38 92.9709C140.38 78.4873 143.524 66.0379 149.813 55.6227C156.202 45.2076 164.888 40 175.869 40C181.16 40 186.65 41.3019 192.341 43.9057C198.131 46.3467 201.724 47.5673 203.122 47.5673C204.52 47.5673 205.768 45.9399 206.866 42.6852H208.513L209.561 91.9945H207.165C202.373 77.8363 197.332 66.5261 192.041 58.0638C186.85 49.4387 181.16 45.1262 174.97 45.1262C168.881 45.1262 164.139 47.4859 160.745 52.2053C157.35 56.7619 155.653 62.9459 155.653 70.7573C155.653 78.4059 157.65 84.3458 161.643 88.577C165.736 92.6454 170.728 95.9815 176.617 98.5853C182.507 101.189 186.351 102.979 188.148 103.956C190.044 104.932 192.341 106.315 195.036 108.105C197.831 109.733 200.077 111.523 201.774 113.476C203.571 115.266 205.418 117.626 207.315 120.555C209.311 123.321 210.859 126.413 211.957 129.831C214.652 137.642 216 146.918 216 157.659C216 175.234 212.606 189.393 205.817 200.133C199.129 210.711 190.294 216 179.313 216C173.623 216 167.084 214.779 159.696 212.338C152.409 209.897 148.366 208.677 147.567 208.677C146.17 208.677 144.822 211.118 143.524 216H141.428L139.93 157.903H142.476C146.868 172.061 152.459 184.429 159.247 195.007C166.135 205.585 173.373 210.874 180.96 210.874Z" fill="#354873"/>
</svg>
