<svg width="256" height="256" viewBox="0 0 256 256" fill="none" xmlns="http://www.w3.org/2000/svg">
    <rect width="256" height="256" rx="48" fill="#81ADD9"/>
    <path d="M140.518 157.475V185.095C145.01 187.397 150.323 189.123 156.456 190.274C162.589 191.425 169.053 192 175.849 192C182.471 192 188.763 191.367 194.723 190.101C200.683 188.835 205.91 186.749 210.401 183.844C214.893 180.938 218.449 177.14 221.07 172.45C223.69 167.761 225 161.964 225 155.059C225 150.053 224.251 145.665 222.754 141.896C221.273 138.153 219.072 134.736 216.275 131.841C213.454 128.906 210.07 126.274 206.126 123.943C202.181 121.613 197.732 119.412 192.779 117.341C189.151 115.844 185.898 114.392 183.018 112.982C180.139 111.572 177.691 110.134 175.676 108.666C173.66 107.199 172.105 105.645 171.011 104.005C169.917 102.365 169.37 100.51 169.37 98.438C169.37 96.539 169.859 94.828 170.838 93.303C171.817 91.778 173.2 90.469 174.985 89.376C176.77 88.282 178.958 87.434 181.55 86.829C184.141 86.225 187.021 85.923 190.188 85.923C192.492 85.923 194.925 86.096 197.487 86.441C200.05 86.786 202.627 87.318 205.219 88.038C207.803 88.7543 210.329 89.6632 212.777 90.757C215.151 91.8088 217.421 93.08 219.558 94.554V68.747C215.354 67.136 210.761 65.942 205.78 65.165C200.799 64.388 195.083 64 188.633 64C182.068 64 175.849 64.705 169.975 66.115C164.101 67.524 158.932 69.725 154.469 72.717C150.006 75.71 146.479 79.522 143.887 84.154C141.296 88.786 140 94.324 140 100.769C140 108.997 142.375 116.017 147.127 121.829C151.878 127.64 159.09 132.56 168.765 136.588C172.337 138.043 175.879 139.568 179.39 141.163C182.673 142.659 185.509 144.212 187.899 145.823C190.289 147.434 192.175 149.189 193.557 151.088C194.939 152.987 195.63 155.145 195.63 157.562C195.641 159.301 195.194 161.013 194.334 162.525C193.471 164.049 192.16 165.373 190.404 166.495C188.648 167.617 186.459 168.494 183.839 169.127C181.219 169.76 178.152 170.077 174.639 170.077C168.65 170.077 162.719 169.027 156.845 166.926C150.97 164.826 145.528 161.676 140.518 157.475ZM94.482 88.742H130V66H31V88.742H66.345V190H94.482V88.742Z" fill="#354873"/>
</svg>
